<?xml version="1.0" standalone="no"?>
<!DOCTYPE svg PUBLIC "-//W3C//DTD SVG 20010904//EN"
 "http://www.w3.org/TR/2001/REC-SVG-20010904/DTD/svg10.dtd">
<svg version="1.0" xmlns="http://www.w3.org/2000/svg"
 width="415.000000pt" height="415.000000pt" viewBox="0 0 415.000000 415.000000"
 preserveAspectRatio="xMidYMid meet">
<metadata>
Created by potrace 1.14, written by Peter Selinger 2001-2017
</metadata>
<g transform="translate(0.000000,415.000000) scale(0.100000,-0.100000)"
fill="#000000" stroke="none">
<path d="M305 2915 c-3 -11 -9 -47 -15 -80 -5 -33 -12 -71 -15 -85 -3 -13 -7
-42 -11 -64 -3 -22 -7 -43 -9 -46 -1 -3 -6 -27 -10 -55 -3 -27 -15 -95 -25
-150 -11 -55 -22 -116 -25 -135 -4 -19 -11 -60 -16 -90 -6 -30 -12 -64 -13
-75 -6 -33 -37 -208 -42 -235 -2 -14 -7 -40 -9 -57 -3 -18 -9 -52 -14 -75 -6
-24 -13 -65 -17 -93 -3 -27 -8 -53 -10 -56 -2 -4 -6 -24 -9 -45 -3 -22 -8 -48
-10 -60 -3 -12 -7 -39 -11 -60 -3 -21 -14 -81 -23 -131 -10 -51 -15 -95 -13
-98 3 -3 123 -5 268 -5 l262 0 6 27 c3 16 8 48 12 73 4 25 8 47 9 50 7 37 16
83 21 115 3 22 12 72 19 110 8 39 21 120 30 180 8 61 18 125 21 143 l5 33 42
-48 c56 -63 568 -595 641 -665 19 -17 44 -18 422 -18 l403 0 -57 53 c-31 28
-86 80 -122 114 -36 34 -76 71 -90 83 -14 12 -50 45 -80 73 -31 29 -87 81
-125 117 -39 35 -104 96 -146 135 -153 142 -301 273 -354 311 l-25 19 82 49
c159 95 1147 746 1148 756 0 3 -172 5 -382 5 l-383 -1 -235 -173 c-129 -95
-245 -180 -257 -189 -12 -9 -31 -24 -43 -32 -50 -35 -337 -254 -357 -273 -13
-11 -25 -18 -28 -15 -3 3 8 63 24 134 27 119 34 156 47 239 3 17 14 77 24 135
11 58 22 121 25 140 l5 35 -265 0 c-258 0 -266 0 -270 -20z"/>
<path d="M2887 2934 c-1 -1 -38 -4 -82 -8 -546 -42 -976 -381 -1044 -821 -36
-240 38 -476 199 -636 116 -114 296 -202 485 -236 22 -4 270 -8 550 -10 l510
-4 136 143 c260 274 277 293 274 296 -2 2 -285 4 -630 4 -666 0 -700 2 -802
50 -62 29 -125 88 -158 149 -36 67 -47 188 -22 259 33 97 51 126 115 190 78
76 159 122 269 151 74 20 105 22 561 23 l483 1 37 42 c20 22 91 98 157 168
196 208 215 228 215 234 0 5 -1247 9 -1253 5z"/>
</g>
</svg>
